<svg viewBox="0 0 400 100" xmlns="http://www.w3.org/2000/svg"><path d="M83.5 76.5h29.3v19.1H48.5L81.7 45H54V25.9h62.3L83.5 76.5zm120.2 19.1V56.8c0-8.7-2.2-13.3-9.6-13.3s-10.2 4.3-10.2 13.3v38.8h-21.3V56.8c0-8.7-2.5-13.3-10-13.3s-9.8 4.3-9.8 13.3v38.8h-21.3V56.8c0-22.6 9.8-32.5 29.9-32.5s21.3 7.9 21.9 10.5c.7-2.7 8.1-10.5 22.3-10.5 21.3 0 29.5 11.7 29.5 32.5v38.8h-21.4zm56.5 0c-14.4 0-23.4-6.5-23.4-23.4V2.4h21.3v23.4h13.8v19.1h-13.8v23.6c0 5.9 2.7 7.9 7.8 7.9h6v19.1h-11.7v.1zm53.7 1.6c-21.7 0-34.9-13.1-34.9-36.4s14.4-36.4 34.9-36.4 34.4 13.4 34.4 36.4-13.9 36.4-34.4 36.4zm-.1-53.6c-8.2 0-13.5 5.2-13.5 17.2S305.9 78 313.8 78s13.4-5.5 13.4-17.2-4.4-17.2-13.4-17.2z" fill="currentColor"/></svg>