<svg viewBox="0 0 400 100" xmlns="http://www.w3.org/2000/svg"><g><path fill="currentColor" d="m83.5,76.5l29.3,0l0,19.1l-64.3,0l33.2,-50.6l-27.7,0l0,-19.1l62.3,0l-32.8,50.6z"></path><path fill="currentColor" d="m203.7,95.6l0,-38.8c0,-8.7 -2.2,-13.3 -9.6,-13.3s-10.2,4.3 -10.2,13.3l0,38.8l-21.3,0l0,-38.8c0,-8.7 -2.5,-13.3 -10,-13.3s-9.8,4.3 -9.8,13.3l0,38.8l-21.3,0l0,-38.8c0,-22.6 9.8,-32.5 29.9,-32.5s21.3,7.9 21.9,10.5c0.7,-2.7 8.1,-10.5 22.3,-10.5c21.3,0 29.5,11.7 29.5,32.5l0,38.8l-21.3,0l-0.1,0z"></path><path fill="currentColor" d="m260.2,95.6c-14.4,0 -23.4,-6.5 -23.4,-23.4l0,-69.8l21.3,0l0,23.4l13.8,0l0,19.1l-13.8,0l0,23.6c0,5.9 2.7,7.9 7.8,7.9l6,0l0,19.1l-11.7,0l0,0.1z"></path><path fill="currentColor" d="m313.9,97.2c-21.7,0 -34.9,-13.1 -34.9,-36.4s14.4,-36.4 34.9,-36.4s34.4,13.4 34.4,36.4s-13.9,36.4 -34.4,36.4zm-0.1,-53.6c-8.2,0 -13.5,5.2 -13.5,17.2s5.6,17.2 13.5,17.2s13.4,-5.5 13.4,-17.2s-4.4,-17.2 -13.4,-17.2z"></path></g></svg>
